<?xml version='1.0' encoding='iso-8859-1'?>
<!DOCTYPE svg PUBLIC '-//W3C//DTD SVG 1.1//EN' 'http://www.w3.org/Graphics/SVG/1.1/DTD/svg11.dtd'>
<!-- Uploaded to: SVG Repo, www.svgrepo.com, Generator: SVG Repo Mixer Tools -->
<svg fill="#000000" height="800px" width="800px" version="1.1" xmlns="http://www.w3.org/2000/svg" viewBox="0 0 460 460" xmlns:xlink="http://www.w3.org/1999/xlink" enable-background="new 0 0 460 460">
  <path d="m457.75,303.908c-2.318-2.844-6.007-4.188-9.611-3.506l-19.385,3.673c-1.484-31.964-14.98-60.66-38.39-81.313-23.78-20.979-56.264-32.534-91.468-32.534-0.21,0-0.418,0.006-0.628,0.006l23.192-56.433c1.395-3.393 0.819-7.277-1.5-10.12-2.318-2.843-6.008-4.186-9.611-3.506l-19.386,3.673c-1.484-31.964-14.98-60.66-38.389-81.313-23.781-20.98-56.265-32.535-91.469-32.535s-67.688,11.555-91.469,32.534c-23.41,20.653-36.906,49.35-38.39,81.314l-19.385-3.673c-3.606-0.682-7.293,0.662-9.612,3.506-2.318,2.843-2.894,6.728-1.5,10.12l53.331,129.772c1.542,3.751 5.195,6.199 9.25,6.199h112.325c-3.82,10.808-6.063,22.326-6.619,34.303l-19.385-3.673c-3.606-0.681-7.293,0.663-9.612,3.506s-2.894,6.728-1.5,10.12l53.331,129.772c1.542,3.751 5.195,6.199 9.25,6.199h195.547c4.055,0 7.708-2.448 9.25-6.199l53.331-129.772c1.396-3.392 0.821-7.277-1.498-10.12zm-161.801-160.649l-19.994,48.651c-7.89,1.175-15.556,2.961-22.926,5.323l14.979-48.681 27.941-5.293zm-67.046,64.38c-7.139,3.969-13.82,8.585-19.951,13.811l6.132-79.718 31.89,7.174-18.071,58.733zm-158.87,42.134l-43.773-106.514 27.941,5.294 31.145,101.219h-15.313zm36.238,.001l-31.037-100.869 31.89-7.176 8.311,108.044h-9.164zm44.834,.001h-15.609l-8.189-106.46 23.799,5.355v101.105zm-35.218-129.529c-1.445-0.326-2.945-0.326-4.391,0l-45.381,10.211-14.985-2.839c1.137-56.695 47.032-97.616 109.974-97.616 62.942,0 108.836,40.92 109.973,97.615l-14.993,2.84-45.389-10.211c-1.445-0.326-2.945-0.326-4.39,0l-45.208,10.172-45.21-10.172zm55.217,129.529v-101.108l23.8-5.355-7.947,103.31c-0.665,1.04-1.312,2.092-1.943,3.153h-13.91zm127.791-39.545c62.942,0 108.836,40.92 109.973,97.615l-14.993,2.84-45.389-10.211c-1.445-0.326-2.945-0.326-4.39,0l-45.208,10.172-45.209-10.172c-1.445-0.326-2.945-0.326-4.391,0l-45.381,10.211-14.985-2.839c1.136-56.696 47.03-97.616 109.973-97.616zm45.669,219.772l8.311-108.042 31.89,7.174-31.036,100.868h-9.165zm-35.669,0v-101.108l23.799-5.355-8.19,106.463h-15.609zm-35.61,0l-8.189-106.46 23.799,5.355v101.105h-15.61zm-29.225,0l-31.037-100.869 31.89-7.176 8.312,108.045h-9.165zm-80.01-106.513l27.941,5.294 31.145,101.219h-15.313l-43.773-106.513zm225.916,106.513h-15.313l31.145-101.22 27.941-5.293-43.773,106.513z"/>
</svg>